G04 DipTrace 3.1.0.1*
G04 BottomSilk.gbr*
%MOIN*%
G04 #@! TF.FileFunction,Legend,Bot*
G04 #@! TF.Part,Single*
%ADD10C,0.009843*%
%ADD18C,0.024*%
%ADD76C,0.00772*%
%ADD77C,0.003281*%
%FSLAX26Y26*%
G04*
G70*
G90*
G75*
G01*
G04 BotSilk*
%LPD*%
X403543Y3471260D2*
D10*
X1203543D1*
Y2871260D1*
X403543D1*
Y3471260D1*
X1325213Y1841926D2*
X636236D1*
X1319287Y818272D2*
X640163D1*
X1321285Y1835966D2*
Y822176D1*
X640163Y1845831D2*
Y818272D1*
X976133Y1965935D2*
X976267Y1969917D1*
X976670Y1973879D1*
X977338Y1977803D1*
X978268Y1981668D1*
X979457Y1985458D1*
X980898Y1989152D1*
X982585Y1992732D1*
X984508Y1996183D1*
X986660Y1999486D1*
X989028Y2002625D1*
X991602Y2005586D1*
X994370Y2008354D1*
X997317Y2010915D1*
X1000429Y2013257D1*
X1003692Y2015368D1*
X1007088Y2017238D1*
X1010603Y2018859D1*
X1014218Y2020222D1*
X1017916Y2021320D1*
X1021679Y2022148D1*
X1025489Y2022703D1*
X1029326Y2022980D1*
X1033173D1*
X1037011Y2022703D1*
X1040821Y2022148D1*
X1044584Y2021320D1*
X1048282Y2020222D1*
X1051897Y2018859D1*
X1055412Y2017238D1*
X1058808Y2015368D1*
X1062071Y2013257D1*
X1065183Y2010915D1*
X1068130Y2008354D1*
X1070898Y2005586D1*
X1073472Y2002625D1*
X1075840Y1999486D1*
X1077992Y1996183D1*
X1079915Y1992732D1*
X1081602Y1989152D1*
X1083043Y1985458D1*
X1084232Y1981668D1*
X1085162Y1977803D1*
X1085830Y1973879D1*
X1086232Y1969917D1*
X1086367Y1965935D1*
X1086232Y1961953D1*
X1085830Y1957991D1*
X1085162Y1954067D1*
X1084232Y1950201D1*
X1083043Y1946412D1*
X1081602Y1942718D1*
X1079915Y1939137D1*
X1077992Y1935687D1*
X1075840Y1932384D1*
X1073472Y1929244D1*
X1070898Y1926284D1*
X1068130Y1923516D1*
X1065183Y1920955D1*
X1062071Y1918613D1*
X1058808Y1916502D1*
X1055412Y1914631D1*
X1051897Y1913011D1*
X1048282Y1911648D1*
X1044584Y1910550D1*
X1040821Y1909722D1*
X1037011Y1909167D1*
X1033173Y1908889D1*
X1029326D1*
X1025489Y1909167D1*
X1021679Y1909722D1*
X1017916Y1910550D1*
X1014218Y1911648D1*
X1010603Y1913011D1*
X1007088Y1914631D1*
X1003692Y1916502D1*
X1000429Y1918613D1*
X997317Y1920955D1*
X994370Y1923516D1*
X991602Y1926284D1*
X989028Y1929244D1*
X986660Y1932384D1*
X984508Y1935687D1*
X982585Y1939137D1*
X980898Y1942718D1*
X979457Y1946412D1*
X978268Y1950201D1*
X977338Y1954067D1*
X976670Y1957991D1*
X976267Y1961953D1*
X976133Y1965935D1*
X1161175Y2046644D2*
X897395D1*
Y1881290D1*
X1161175D1*
Y2046644D1*
X905282Y2038773D2*
X921030D1*
X1174626Y2306890D2*
D18*
X1367476D1*
Y2342318D1*
X1221870D1*
Y2381720D1*
X1363602D1*
Y2428936D1*
X1221870D1*
Y2476220D1*
X1363602D1*
Y2519529D1*
X1225744D1*
Y2562839D1*
X1363602D1*
Y2720314D1*
X1170657Y2306890D2*
X1147035D1*
Y2562839D1*
X513508Y1926286D2*
D76*
Y1904786D1*
X511076Y1897601D1*
X508699Y1895169D1*
X503946Y1892793D1*
X499138D1*
X494385Y1895169D1*
X491953Y1897601D1*
X489576Y1904786D1*
Y1926286D1*
X539816D1*
X513508Y1909539D2*
X539816Y1892792D1*
Y1853422D2*
X489631D1*
X523070Y1877353D1*
X523069Y1841483D1*
X594766Y2006356D2*
Y1984856D1*
X592335Y1977671D1*
X589958Y1975239D1*
X585205Y1972863D1*
X580396D1*
X575643Y1975239D1*
X573211Y1977671D1*
X570835Y1984856D1*
Y2006356D1*
X621075D1*
X594766Y1989609D2*
X621075Y1972863D1*
X570890Y1928739D2*
Y1952615D1*
X592390Y1954992D1*
X590013Y1952615D1*
X587581Y1945430D1*
Y1938300D1*
X590013Y1931115D1*
X594766Y1926307D1*
X601951Y1923930D1*
X606705D1*
X613890Y1926307D1*
X618698Y1931115D1*
X621075Y1938300D1*
Y1945430D1*
X618698Y1952615D1*
X616266Y1954992D1*
X611513Y1957423D1*
X676025Y2086399D2*
Y2064899D1*
X673593Y2057714D1*
X671217Y2055282D1*
X666463Y2052905D1*
X661655D1*
X656902Y2055282D1*
X654470Y2057714D1*
X652093Y2064899D1*
Y2086399D1*
X702333D1*
X676025Y2069652D2*
X702333Y2052905D1*
X659278Y2008781D2*
X654525Y2011158D1*
X652148Y2018343D1*
Y2023096D1*
X654525Y2030281D1*
X661710Y2035090D1*
X673648Y2037466D1*
X685587D1*
X695148Y2035089D1*
X699957Y2030281D1*
X702333Y2023096D1*
Y2020719D1*
X699957Y2013590D1*
X695148Y2008781D1*
X687963Y2006405D1*
X685587D1*
X678402Y2008781D1*
X673648Y2013590D1*
X671272Y2020719D1*
Y2023096D1*
X673648Y2030281D1*
X678402Y2035090D1*
X685587Y2037466D1*
X657032Y3592394D2*
Y3570894D1*
X654600Y3563709D1*
X652224Y3561277D1*
X647471Y3558901D1*
X642662D1*
X637909Y3561277D1*
X635477Y3563709D1*
X633100Y3570894D1*
Y3592394D1*
X683340D1*
X657032Y3575647D2*
X683340Y3558901D1*
Y3533900D2*
X633156Y3509968D1*
Y3543462D1*
X1204328Y2200228D2*
X1182829D1*
X1175643Y2202660D1*
X1173212Y2205037D1*
X1170835Y2209790D1*
Y2214598D1*
X1173212Y2219352D1*
X1175643Y2221783D1*
X1182829Y2224160D1*
X1204328D1*
Y2173920D1*
X1187582Y2200228D2*
X1170835Y2173920D1*
X1143458Y2224105D2*
X1150587Y2221728D1*
X1153019Y2216975D1*
Y2212167D1*
X1150587Y2207413D1*
X1145834Y2204982D1*
X1136273Y2202605D1*
X1129087Y2200228D1*
X1124334Y2195420D1*
X1121958Y2190667D1*
Y2183482D1*
X1124334Y2178729D1*
X1126711Y2176297D1*
X1133896Y2173920D1*
X1143458D1*
X1150587Y2176297D1*
X1153019Y2178729D1*
X1155396Y2183482D1*
Y2190667D1*
X1153019Y2195420D1*
X1148211Y2200228D1*
X1141081Y2202605D1*
X1131519Y2204982D1*
X1126711Y2207413D1*
X1124334Y2212167D1*
Y2216975D1*
X1126711Y2221728D1*
X1133896Y2224105D1*
X1143458D1*
X668843Y3972252D2*
Y3950752D1*
X666411Y3943567D1*
X664035Y3941135D1*
X659282Y3938759D1*
X654473D1*
X649720Y3941135D1*
X647288Y3943567D1*
X644912Y3950752D1*
Y3972252D1*
X695151D1*
X668843Y3955506D2*
X695151Y3938759D1*
X654528Y3923320D2*
X652097Y3918511D1*
X644967Y3911326D1*
X695151D1*
X644967Y3881517D2*
X647343Y3888702D1*
X654528Y3893510D1*
X666467Y3895887D1*
X673652D1*
X685590Y3893510D1*
X692775Y3888702D1*
X695152Y3881517D1*
Y3876764D1*
X692775Y3869579D1*
X685590Y3864825D1*
X673652Y3862394D1*
X666467D1*
X654528Y3864825D1*
X647343Y3869579D1*
X644967Y3876764D1*
Y3881517D1*
X654528Y3864825D2*
X685590Y3893510D1*
X1220502Y3201723D2*
X1256372D1*
X1263557Y3199346D1*
X1268310Y3194538D1*
X1270742Y3187353D1*
Y3182600D1*
X1268310Y3175415D1*
X1263557Y3170606D1*
X1256372Y3168230D1*
X1220502D1*
X1230119Y3152790D2*
X1227687Y3147982D1*
X1220557Y3140797D1*
X1270742D1*
X1342171Y1374452D2*
X1378041D1*
X1385226Y1372076D1*
X1389979Y1367267D1*
X1392411Y1360082D1*
Y1355329D1*
X1389979Y1348144D1*
X1385226Y1343336D1*
X1378041Y1340959D1*
X1342171D1*
X1392411Y1301588D2*
X1342227D1*
X1375665Y1325520D1*
Y1289650D1*
X1086591Y2119867D2*
X1067467Y2069627D1*
X1048344Y2119867D1*
X1032905D2*
Y2069627D1*
X1016158D1*
X1008973Y2072059D1*
X1004165Y2076812D1*
X1001788Y2081621D1*
X999412Y2088751D1*
Y2100744D1*
X1001788Y2107929D1*
X1004165Y2112682D1*
X1008973Y2117491D1*
X1016158Y2119867D1*
X1032905D1*
X983972Y2110251D2*
X979164Y2112682D1*
X971979Y2119812D1*
Y2069627D1*
X1024889Y2379589D2*
D77*
Y2342315D1*
X964601D1*
Y2379589D1*
X996171Y2342315D2*
Y2365263D1*
X1016267Y2426343D2*
X1022037Y2420639D1*
X1024889Y2412017D1*
Y2400543D1*
X1022037Y2391921D1*
X1016267Y2386151D1*
X1010563D1*
X1004793Y2389069D1*
X1001941Y2391921D1*
X999089Y2397625D1*
X993319Y2414869D1*
X990467Y2420639D1*
X987549Y2423491D1*
X981845Y2426343D1*
X973223D1*
X967519Y2420639D1*
X964601Y2412017D1*
Y2400543D1*
X967519Y2391921D1*
X973223Y2386151D1*
X993319Y2432904D2*
Y2458771D1*
X996171Y2467326D1*
X999089Y2470244D1*
X1004793Y2473096D1*
X1013415D1*
X1019119Y2470244D1*
X1022037Y2467326D1*
X1024889Y2458771D1*
Y2432904D1*
X964601D1*
X994712Y2526014D2*
Y2559176D1*
X1013349Y2612093D2*
X1016267Y2617863D1*
X1024823Y2626485D1*
X964601D1*
X1010497Y2635965D2*
X1013349D1*
X1019119Y2638817D1*
X1021971Y2641669D1*
X1024823Y2647439D1*
Y2658913D1*
X1021971Y2664617D1*
X1019119Y2667469D1*
X1013349Y2670387D1*
X1007645D1*
X1001875Y2667469D1*
X993319Y2661765D1*
X964601Y2633047D1*
Y2673239D1*
M02*
