G04 DipTrace 3.1.0.1*
G04 Bottom.gbr*
%MOIN*%
G04 #@! TF.FileFunction,Copper,L2,Bot*
G04 #@! TF.Part,Single*
%AMOUTLINE0*
4,1,20,
0.022461,0.044902,
0.021113,0.052585,
0.017218,0.059344,
0.011247,0.064364,
0.00392,0.067037,
-0.003881,0.067045,
-0.011214,0.064382,
-0.017193,0.059374,
-0.0211,0.052622,
-0.022461,0.044941,
-0.022461,0.00002,
-0.021113,-0.007664,
-0.017218,-0.014423,
-0.011247,-0.019442,
-0.00392,-0.022115,
0.003881,-0.022123,
0.011214,-0.019461,
0.017193,-0.014453,
0.0211,-0.007701,
0.022461,-0.00002,
0.022461,0.044902,
0*%
%AMOUTLINE1*
4,1,20,
-0.022461,-0.044902,
-0.021113,-0.052585,
-0.017218,-0.059344,
-0.011247,-0.064364,
-0.00392,-0.067037,
0.003881,-0.067045,
0.011214,-0.064382,
0.017193,-0.059374,
0.0211,-0.052622,
0.022461,-0.044941,
0.022461,-0.00002,
0.021113,0.007664,
0.017218,0.014423,
0.011247,0.019442,
0.00392,0.022115,
-0.003881,0.022123,
-0.011214,0.019461,
-0.017193,0.014453,
-0.0211,0.007701,
-0.022461,0.00002,
-0.022461,-0.044902,
0*%
G04 #@! TA.AperFunction,Conductor*
%ADD13C,0.023622*%
%ADD14C,0.012992*%
%ADD15C,0.031496*%
%ADD16C,0.025984*%
%ADD17C,0.03937*%
%ADD23R,0.051181X0.059055*%
G04 #@! TA.AperFunction,ComponentPad*
%ADD26R,0.062992X0.062992*%
%ADD27C,0.062992*%
%ADD28C,0.11811*%
%ADD29C,0.11811*%
%ADD30C,0.059055*%
%ADD31R,0.070866X0.070866*%
%ADD32R,0.066929X0.066929*%
%ADD33C,0.066929*%
%ADD34C,0.070866*%
%ADD37R,0.106299X0.106299*%
%ADD38R,0.059055X0.03937*%
G04 #@! TA.AperFunction,ViaPad*
%ADD39C,0.07937*%
G04 #@! TA.AperFunction,ComponentPad*
%ADD78OUTLINE0*%
%ADD79OUTLINE1*%
%FSLAX26Y26*%
G04*
G70*
G90*
G75*
G01*
G04 Bottom*
%LPD*%
X750907Y2046402D2*
D13*
Y2218787D1*
X749398Y2220297D1*
X669648Y1965143D2*
Y2219287D1*
X670657Y2220297D1*
X588390Y1883885D2*
Y2216769D1*
X591917Y2220297D1*
X744451Y1965143D2*
X930077D1*
X932828Y1962392D1*
X825710Y2046402D2*
X838211D1*
X875715Y2008898D1*
X926577D1*
X932828Y2015148D1*
X663193Y1883885D2*
X794457D1*
X825710Y1915138D1*
X931264D1*
X932828Y1913573D1*
X1125741Y1912786D2*
D14*
Y1963967D1*
Y2015148D2*
Y1963967D1*
X906878Y2220297D2*
D15*
Y2327681D1*
X1081987D1*
X1200749Y2208919D1*
Y2069675D1*
Y2015148D1*
Y1963967D1*
Y1912786D1*
Y1890135D1*
X969475Y1658861D1*
X631940D1*
X513177Y1777623D1*
Y2220297D1*
X1125741Y2015148D2*
D13*
X1200749D1*
X1125741Y1963967D2*
X1200749D1*
X1125741Y1912786D2*
X1200749D1*
X1200545Y2121409D2*
D14*
X1200749Y2069675D1*
X519428Y3834089D2*
D15*
X519685Y3834346D1*
X446772Y3761433D1*
Y3696289D1*
Y2752440D1*
X490240Y2708971D1*
X531929D1*
X906878Y2334022D1*
Y2220297D1*
X519428Y3696575D2*
X446772Y3696289D1*
X527559Y3917323D2*
D16*
X519685D1*
Y3834346D1*
X828138Y2220297D2*
D13*
Y2150235D1*
X888217Y2090156D1*
X1025731D1*
X1063235Y2127660D1*
Y2219173D1*
X1064358Y2220297D1*
X828138D2*
Y2237744D1*
X794457Y2271425D1*
X494425D1*
X444420Y2221420D1*
Y874478D1*
X787402Y531496D1*
X1125741Y2121409D2*
X1060340D1*
X1063235Y2127660D1*
X590551Y3551181D2*
D16*
Y2772844D1*
X591917Y2771478D1*
X610236Y531496D2*
D17*
Y580709D1*
X561024Y629921D1*
X1127953Y3728346D2*
D13*
X1177165D1*
X1403543D1*
X1425773Y3750576D1*
Y3865566D1*
X1357239Y3934100D1*
X956974D1*
X913129Y3890255D1*
Y3834089D1*
X1403543Y3728346D2*
D15*
Y3584646D1*
X1401575Y3582677D1*
X515748Y3551181D2*
D16*
Y2774049D1*
X513177Y2771478D1*
X484252Y637795D2*
D17*
X553150D1*
X561024Y629921D1*
X1177165Y3826772D2*
D16*
Y3728346D1*
X617853Y3834089D2*
D13*
X704724Y3747218D1*
Y2954346D1*
X670657Y2920280D1*
Y2771478D1*
X602362Y3917323D2*
D16*
Y3849580D1*
X617853Y3834089D1*
X1011554D2*
D13*
Y3782408D1*
X846457Y3617311D1*
Y3129921D1*
X1131992Y2844386D1*
Y2715222D1*
X1094488Y2677718D1*
X781955D1*
X749398Y2710276D1*
Y2771478D1*
X1354331Y3826772D2*
X1291339Y3889764D1*
X1056403D1*
X1011554Y3844915D1*
Y3834089D1*
X814703D2*
X799213D1*
Y3035500D1*
X906878Y2927835D1*
Y2771478D1*
X716278Y3834089D2*
X751969Y3798399D1*
Y2988984D1*
X828138Y2912815D1*
Y2771478D1*
X531496Y1555118D2*
D17*
X588185Y1498429D1*
Y1008793D1*
X1263780Y523622D2*
X1346457D1*
X1263780Y665354D2*
Y523622D1*
X1023622D2*
D16*
Y460630D1*
X1039370Y444882D1*
X1326772D1*
X1346457Y464567D1*
Y523622D1*
X937008Y704724D2*
D17*
X1066929D1*
X1188248Y583406D1*
Y526831D1*
X1185039Y523622D1*
X1128362Y893075D2*
D15*
X1131992Y896705D1*
X937008Y3574803D2*
D17*
X1200787D1*
X1283631Y3491959D1*
Y1935135D1*
X1363266Y1855500D1*
Y807087D1*
X1362205D1*
D39*
X519428Y3696575D3*
X588185Y1008793D3*
X531496Y1555118D3*
X1362205Y807087D3*
X1401575Y3582677D3*
X484252Y637795D3*
X1263780Y665354D3*
D26*
X519428Y3834089D3*
D27*
X617853D3*
X716278D3*
X814703D3*
X913129D3*
X1011554D3*
D78*
X513177Y2771478D3*
X591917D3*
X670657D3*
X749398D3*
X828138D3*
X906878D3*
X985618D3*
X1064358D3*
D79*
X513177Y2220297D3*
X591917D3*
X670657D3*
X749398D3*
X828138D3*
X906878D3*
X985618D3*
X1064358D3*
D28*
X937008Y704724D3*
D29*
Y3574803D3*
D23*
X663193Y1883885D3*
X588390D3*
X744451Y1965143D3*
X669648D3*
X825710Y2046402D3*
X750907D3*
X515748Y3551181D3*
X590551D3*
X1125741Y2121409D3*
X1200545D3*
X527559Y3917323D3*
X602362D3*
D30*
X1263780Y523622D3*
X1185039D3*
X1106299D3*
D31*
X1346457D3*
X1023622D3*
D32*
X787402Y531496D3*
D33*
X610236D3*
D34*
X836614Y629921D3*
X561024D3*
D32*
X1177165Y3826772D3*
D33*
X1354331D3*
D34*
X1127953Y3728346D3*
X1403543D3*
D30*
X1153543Y3421260D3*
Y3321260D3*
Y3221260D3*
Y3121260D3*
Y3021260D3*
Y2921260D3*
D37*
X1244504Y1765122D3*
X716945D3*
X713008Y893075D3*
X831118D3*
X1128362D3*
X1246472D3*
D38*
X1125741Y2015148D3*
Y1963967D3*
Y1912786D3*
X932828Y2015148D3*
Y1962392D3*
Y1913573D3*
M02*
