M48
METRIC,0000.00
T01C0.7
T02C0.8
T03C0.9
T04C1.0
T05C1.2
T06C1.3
T07C1.4
T08C2.0
%
T08
X+001210Y+001170
X+003590Y+001480
X+003530Y+008730
X+001600Y+009390
T04
X+001319Y+009739
X+001569Y+009739
X+001819Y+009739
X+002069Y+009739
X+002319Y+009739
X+002569Y+009739
T01
X+001303Y+007040
X+001503Y+007040
X+001703Y+007040
X+001903Y+007040
X+002103Y+007040
X+002303Y+007040
X+002503Y+007040
X+002703Y+007040
X+001303Y+005640
X+001503Y+005640
X+001703Y+005640
X+001903Y+005640
X+002103Y+005640
X+002303Y+005640
X+002503Y+005640
X+002703Y+005640
T04
X+002380Y+001790
X+002380Y+009080
T02
X+003210Y+001330
X+003010Y+001330
X+002810Y+001330
T07
X+003420Y+001330
X+002600Y+001330
T04
X+002000Y+001350
X+001550Y+001350
T06
X+002125Y+001600
X+001425Y+001600
T04
X+002990Y+009720
X+003440Y+009720
T06
X+002865Y+009470
X+003565Y+009470
T04
X+001319Y+009389
X+001494Y+002562
X+001350Y+003950
X+003460Y+002050
X+003560Y+009100
X+001230Y+001620
X+003210Y+001690
T03
X+002930Y+008690
X+002930Y+008436
X+002930Y+008182
X+002930Y+007928
X+002930Y+007674
X+002930Y+007420
T05
X+003161Y+004483
X+001821Y+004483
X+001811Y+002268
X+002111Y+002268
X+002866Y+002268
X+003166Y+002268
T08
X+003590Y+001760
T00
M30
