G04 DipTrace 3.1.0.1*
G04 Top.gbr*
%MOIN*%
G04 #@! TF.FileFunction,Copper,L1,Top*
G04 #@! TF.Part,Single*
%AMOUTLINE0*
4,1,20,
0.022461,0.044902,
0.021113,0.052585,
0.017218,0.059344,
0.011247,0.064364,
0.00392,0.067037,
-0.003881,0.067045,
-0.011214,0.064382,
-0.017193,0.059374,
-0.0211,0.052622,
-0.022461,0.044941,
-0.022461,0.00002,
-0.021113,-0.007664,
-0.017218,-0.014423,
-0.011247,-0.019442,
-0.00392,-0.022115,
0.003881,-0.022123,
0.011214,-0.019461,
0.017193,-0.014453,
0.0211,-0.007701,
0.022461,-0.00002,
0.022461,0.044902,
0*%
%AMOUTLINE1*
4,1,20,
-0.022461,-0.044902,
-0.021113,-0.052585,
-0.017218,-0.059344,
-0.011247,-0.064364,
-0.00392,-0.067037,
0.003881,-0.067045,
0.011214,-0.064382,
0.017193,-0.059374,
0.0211,-0.052622,
0.022461,-0.044941,
0.022461,-0.00002,
0.021113,0.007664,
0.017218,0.014423,
0.011247,0.019442,
0.00392,0.022115,
-0.003881,0.022123,
-0.011214,0.019461,
-0.017193,0.014453,
-0.0211,0.007701,
-0.022461,0.00002,
-0.022461,-0.044902,
0*%
G04 #@! TA.AperFunction,Conductor*
%ADD13C,0.023622*%
%ADD14C,0.012992*%
%ADD15C,0.031496*%
%ADD16C,0.025984*%
%ADD17C,0.03937*%
%ADD20R,0.15X0.1*%
%ADD21R,0.062992X0.070866*%
%ADD22R,0.059055X0.051181*%
%ADD23R,0.051181X0.059055*%
%ADD25R,0.023622X0.023622*%
G04 #@! TA.AperFunction,ComponentPad*
%ADD26R,0.062992X0.062992*%
%ADD27C,0.062992*%
%ADD28C,0.11811*%
%ADD29C,0.11811*%
%ADD30C,0.059055*%
%ADD31R,0.070866X0.070866*%
%ADD32R,0.066929X0.066929*%
%ADD33C,0.066929*%
%ADD34C,0.070866*%
%ADD36R,0.043307X0.023622*%
G04 #@! TA.AperFunction,ComponentPad*
%ADD37R,0.106299X0.106299*%
G04 #@! TA.AperFunction,ViaPad*
%ADD39C,0.07937*%
G04 #@! TA.AperFunction,ComponentPad*
%ADD78OUTLINE0*%
%ADD79OUTLINE1*%
%FSLAX26Y26*%
G04*
G70*
G90*
G75*
G01*
G04 Top*
%LPD*%
X1219000Y2351965D2*
D15*
X1205780Y2365185D1*
X1079622D1*
X906878D1*
X550224D1*
X513177Y2328138D1*
Y2220297D1*
X906878D2*
Y2365185D1*
X1232041Y2040151D2*
Y2077617D1*
X1213251Y2096407D1*
Y2315180D1*
X1219000Y2320929D1*
Y2351965D1*
D14*
D3*
X1075736Y2365390D2*
X1079622Y2365185D1*
X519428Y3584063D2*
D13*
Y3459050D1*
Y3309034D1*
Y3696575D2*
Y3584063D1*
X1275757Y2977749D2*
Y2946496D1*
X1250521Y2921260D1*
X1153543D1*
X1293614Y3659071D2*
X1313261D1*
X1325762Y3646570D1*
Y3534058D1*
X1282008Y3490303D1*
X1135972D1*
X1082677Y3437008D1*
Y3244094D1*
X1105512Y3221260D1*
X1153543D1*
Y3121260D2*
X1125741D1*
X1244759D1*
X1275757Y3090261D1*
Y3052552D1*
X1274862Y3584063D2*
Y3551915D1*
X1257005Y3534058D1*
X1112798D1*
X1023622Y3444882D1*
Y3192913D1*
X1095276Y3121260D1*
X1125741D1*
X1244504Y1765122D2*
D17*
X1369517Y1640109D1*
Y1008793D1*
X1257005Y896281D1*
X1249678D1*
X1246472Y893075D1*
X1219501Y2640214D2*
D15*
X1075736D1*
Y2539747D1*
Y2440193D1*
X1300760Y2039946D2*
X1338264Y2077450D1*
Y2615211D1*
X1313261Y2640214D1*
X1219501D1*
X594436Y1427587D2*
D17*
X444420D1*
Y1765122D1*
Y1821378D1*
X519428Y1896386D1*
D16*
X838211D1*
X944575Y2002749D1*
D13*
X1125741D1*
X1213941Y1765122D2*
D17*
X1244504D1*
X506927D2*
D13*
X444420D1*
Y1427587D1*
X1075736Y2440193D2*
D15*
X506927D1*
X450671Y2383937D1*
Y2090156D1*
X475673Y2065154D1*
X519428D1*
X1256801Y2790230D2*
D17*
X1257005Y2790025D1*
Y2715222D1*
X1219501Y2677718D1*
Y2640214D1*
X561024Y629921D2*
X554680Y636265D1*
X482723D1*
X444420Y674568D1*
Y1427587D1*
X513177Y2771478D2*
D15*
Y2640214D1*
X1075736D1*
X1177165Y3826772D2*
Y3909097D1*
X913129D1*
X481924D1*
X444420Y3871593D1*
Y2840235D1*
X513177Y2771478D1*
X594231Y3584063D2*
X629664D1*
Y3459050D1*
X594231Y3584063D2*
X713984D1*
X913129Y3783207D1*
Y3834089D1*
X1153543Y3321260D2*
X1153819Y3321535D1*
X1250755D1*
X1350765Y3221525D1*
Y2883990D1*
X1257005Y2790230D1*
X1256801D1*
X519428Y2065154D2*
D17*
Y1896386D1*
X506927Y1765122D2*
D14*
X444420D1*
X506927Y2440193D2*
D15*
X513177Y2446444D1*
Y2539747D1*
Y2640214D1*
X1177165Y3909097D2*
X1232635D1*
X1275591Y3866142D1*
Y3767717D1*
X1314961Y3728346D1*
X1403543D1*
Y3584646D1*
X1401575Y3582677D1*
X1244504Y1765122D2*
D17*
X1147012D1*
X809476Y1427587D1*
X719449D1*
X594436D1*
X719449Y1327371D2*
Y1427587D1*
X913129Y3834089D2*
D15*
Y3909097D1*
X513177Y2539747D2*
D16*
X1075736D1*
X484252Y637795D2*
D17*
X482723Y636265D1*
X594231Y3309034D2*
D13*
X706948D1*
X749398Y3266584D1*
Y2771478D1*
X594231Y2065154D2*
X594640Y2064744D1*
Y1965143D1*
X594231Y2065154D2*
X817122D1*
X848375Y2096407D1*
X950723D1*
X985618Y2131302D1*
Y2220297D1*
X1188248Y3584063D2*
X1091937D1*
X964567Y3456693D1*
Y3169291D1*
X1064358Y3069500D1*
Y2771478D1*
X1181997Y2790230D2*
X1088238Y2696470D1*
X1019480D1*
X985618Y2730332D1*
Y2771478D1*
X988227Y2774087D1*
Y3059017D1*
X838583Y3208661D1*
Y3610236D1*
X899919Y3671572D1*
X1056984D1*
X1094488Y3634068D1*
X1150744D1*
X1175747Y3659071D1*
X1207000D1*
X713008Y893075D2*
D17*
X595131Y1010951D1*
X593934Y1012148D1*
Y1139337D1*
X687476D1*
X719449Y1171310D1*
Y1252568D1*
X1125741Y2040151D2*
D13*
X1181997D1*
Y1965348D1*
X1125741D1*
X669444Y1965143D2*
X815537D1*
X890545Y2040151D1*
X1125741D1*
X588185Y1008793D2*
D14*
X595131Y1010951D1*
X1125741Y1965348D2*
D13*
X1007184D1*
X894467Y1852631D1*
X588185D1*
X562992Y1827438D1*
Y1586614D1*
X531496Y1555118D1*
X1232041Y1965348D2*
X1232245Y1965143D1*
X1300760D1*
X1220003Y1447058D2*
D17*
X1100601D1*
X831118Y1177575D1*
Y893075D1*
X834324Y896281D1*
X922617D1*
X1153543Y665354D1*
X1263780D1*
X716945Y1765122D2*
D15*
X1024965D1*
X1131226Y1871383D1*
X1344514D1*
X1413272Y1940140D1*
Y3252778D1*
X1244790Y3421260D1*
X1153543D1*
X617163Y1765122D2*
D13*
X716945D1*
X1219501Y1158808D2*
D17*
Y1065049D1*
X1128362Y973909D1*
Y893075D1*
D15*
X1131992Y889445D1*
Y827524D1*
X1191799Y767717D1*
X1322835D1*
X1362205Y807087D1*
D39*
X519428Y3696575D3*
X588185Y1008793D3*
X531496Y1555118D3*
X1362205Y807087D3*
X1401575Y3582677D3*
X484252Y637795D3*
X1263780Y665354D3*
D20*
X1219501Y1158808D3*
X1220003Y1447058D3*
D21*
X506927Y1765122D3*
X617163D3*
D20*
X594436Y1427587D3*
X593934Y1139337D3*
D22*
X719449Y1252568D3*
Y1327371D3*
D20*
X1219501Y2640214D3*
X1219000Y2351965D3*
D22*
X1075736Y2440193D3*
Y2365390D3*
D23*
X519428Y3584063D3*
X594231D3*
D21*
X519428Y3459050D3*
X629664D3*
D22*
X1300760Y1965143D3*
Y2039946D3*
D25*
X1207000Y3659071D3*
X1293614D3*
X1188248Y3584063D3*
X1274862D3*
D26*
X519428Y3834089D3*
D27*
X617853D3*
X716278D3*
X814703D3*
X913129D3*
X1011554D3*
D78*
X513177Y2771478D3*
X591917D3*
X670657D3*
X749398D3*
X828138D3*
X906878D3*
X985618D3*
X1064358D3*
D79*
X513177Y2220297D3*
X591917D3*
X670657D3*
X749398D3*
X828138D3*
X906878D3*
X985618D3*
X1064358D3*
D28*
X937008Y704724D3*
D29*
Y3574803D3*
D23*
X519428Y3309034D3*
X594231D3*
D22*
X1275757Y2977749D3*
Y3052552D3*
D23*
X1256801Y2790230D3*
X1181997D3*
X669444Y1965143D3*
X594640D3*
X519428Y2065154D3*
X594231D3*
D30*
X1263780Y523622D3*
X1185039D3*
X1106299D3*
D31*
X1346457D3*
X1023622D3*
D32*
X787402Y531496D3*
D33*
X610236D3*
D34*
X836614Y629921D3*
X561024D3*
D32*
X1177165Y3826772D3*
D33*
X1354331D3*
D34*
X1127953Y3728346D3*
X1403543D3*
D30*
X1153543Y3421260D3*
Y3321260D3*
Y3221260D3*
Y3121260D3*
Y3021260D3*
Y2921260D3*
D36*
X1125741Y2040151D3*
Y2002749D3*
Y1965348D3*
X1232041D3*
Y2040151D3*
D37*
X1244504Y1765122D3*
X716945D3*
X713008Y893075D3*
X831118D3*
X1128362D3*
X1246472D3*
M02*
