G04 DipTrace 3.1.0.1*
G04 TopMask.gbr*
%MOIN*%
G04 #@! TF.FileFunction,Soldermask,Top*
G04 #@! TF.Part,Single*
%AMOUTLINE0*
4,1,20,
0.022461,0.044902,
0.021113,0.052585,
0.017218,0.059344,
0.011247,0.064364,
0.00392,0.067037,
-0.003881,0.067045,
-0.011214,0.064382,
-0.017193,0.059374,
-0.0211,0.052622,
-0.022461,0.044941,
-0.022461,0.00002,
-0.021113,-0.007664,
-0.017218,-0.014423,
-0.011247,-0.019442,
-0.00392,-0.022115,
0.003881,-0.022123,
0.011214,-0.019461,
0.017193,-0.014453,
0.0211,-0.007701,
0.022461,-0.00002,
0.022461,0.044902,
0*%
%AMOUTLINE1*
4,1,20,
-0.022461,-0.044902,
-0.021113,-0.052585,
-0.017218,-0.059344,
-0.011247,-0.064364,
-0.00392,-0.067037,
0.003881,-0.067045,
0.011214,-0.064382,
0.017193,-0.059374,
0.0211,-0.052622,
0.022461,-0.044941,
0.022461,-0.00002,
0.021113,0.007664,
0.017218,0.014423,
0.011247,0.019442,
0.00392,0.022115,
-0.003881,0.022123,
-0.011214,0.019461,
-0.017193,0.014453,
-0.0211,0.007701,
-0.022461,0.00002,
-0.022461,-0.044902,
0*%
%ADD31R,0.070866X0.070866*%
%ADD33C,0.066929*%
%ADD34C,0.070866*%
%ADD40C,0.07874*%
%ADD50R,0.051181X0.031496*%
%ADD51R,0.114173X0.114173*%
%ADD54C,0.07874*%
%ADD55C,0.074803*%
%ADD56R,0.074803X0.074803*%
%ADD58R,0.07874X0.07874*%
%ADD60C,0.125984*%
%ADD62C,0.125984*%
%ADD66R,0.031496X0.031496*%
%ADD68R,0.059055X0.066929*%
%ADD70R,0.066929X0.059055*%
%ADD72R,0.070866X0.07874*%
%ADD74R,0.157874X0.107874*%
%ADD78OUTLINE0*%
%ADD79OUTLINE1*%
%FSLAX26Y26*%
G04*
G70*
G90*
G75*
G01*
G04 TopMask*
%LPD*%
D74*
X1219501Y1158808D3*
X1220003Y1447058D3*
D72*
X506927Y1765122D3*
X617163D3*
D74*
X594436Y1427587D3*
X593934Y1139337D3*
D70*
X719449Y1252568D3*
Y1327371D3*
D74*
X1219501Y2640214D3*
X1219000Y2351965D3*
D70*
X1075736Y2440193D3*
Y2365390D3*
D68*
X519428Y3584063D3*
X594231D3*
D72*
X519428Y3459050D3*
X629664D3*
D70*
X1300760Y1965143D3*
Y2039946D3*
D66*
X1207000Y3659071D3*
X1293614D3*
X1188248Y3584063D3*
X1274862D3*
D40*
X476378Y460630D3*
X1413386Y582677D3*
X1389764Y3437008D3*
X629921Y3696850D3*
D31*
X519428Y3834089D3*
D34*
X617853D3*
X716278D3*
X814703D3*
X913129D3*
X1011554D3*
D78*
X513177Y2771478D3*
X591917D3*
X670657D3*
X749398D3*
X828138D3*
X906878D3*
X985618D3*
X1064358D3*
D79*
X513177Y2220297D3*
X591917D3*
X670657D3*
X749398D3*
X828138D3*
X906878D3*
X985618D3*
X1064358D3*
D62*
X937008Y704724D3*
D60*
Y3574803D3*
D68*
X519428Y3309034D3*
X594231D3*
D70*
X1275757Y2977749D3*
Y3052552D3*
D68*
X1256801Y2790230D3*
X1181997D3*
X669444Y1965143D3*
X594640D3*
X519428Y2065154D3*
X594231D3*
D33*
X1263780Y523622D3*
X1185039D3*
X1106299D3*
D58*
X1346457D3*
X1023622D3*
D56*
X787402Y531496D3*
D55*
X610236D3*
D54*
X836614Y629921D3*
X561024D3*
D56*
X1177165Y3826772D3*
D55*
X1354331D3*
D54*
X1127953Y3728346D3*
X1403543D3*
D33*
X1153543Y3421260D3*
Y3321260D3*
Y3221260D3*
Y3121260D3*
Y3021260D3*
Y2921260D3*
D50*
X1125741Y2040151D3*
Y2002749D3*
Y1965348D3*
X1232041D3*
Y2040151D3*
D51*
X1244504Y1765122D3*
X716945D3*
X713008Y893075D3*
X831118D3*
X1128362D3*
X1246472D3*
D40*
X1413386Y692913D3*
M02*
