G04 DipTrace 3.1.0.1*
G04 TopSilk.gbr*
%MOIN*%
G04 #@! TF.FileFunction,Legend,Top*
G04 #@! TF.Part,Single*
%ADD10C,0.009843*%
%ADD19O,0.043323X0.04321*%
%ADD24C,0.009433*%
%ADD35C,0.015395*%
%ADD76C,0.00772*%
%FSLAX26Y26*%
G04*
G70*
G90*
G75*
G01*
G04 TopSilk*
%LPD*%
X562045Y1727622D2*
D10*
Y1815122D1*
Y1740122D2*
Y1715122D1*
X744446Y1289970D2*
X694451D1*
X681949D1*
X744446D2*
X756949D1*
X1050739Y2402791D2*
X1100734D1*
X1113236D1*
X1050739D2*
X1038236D1*
X556829Y3559065D2*
Y3609060D1*
Y3621563D1*
Y3559065D2*
Y3546563D1*
X574546Y3421550D2*
Y3509050D1*
Y3434050D2*
Y3409050D1*
X1325757Y2002545D2*
X1275762D1*
X1263260D1*
X1325757D2*
X1338260D1*
X1218806Y3682692D2*
X1281797D1*
X1218806Y3635449D2*
X1281797D1*
D24*
X1181798Y3659071D3*
X1200054Y3607684D2*
D10*
X1263045D1*
X1200054Y3560442D2*
X1263045D1*
D24*
X1163046Y3584063D3*
X421003Y3912829D2*
D10*
X1109979D1*
Y3751412D1*
X421003D1*
Y3912829D1*
X1360039Y473618D2*
Y429886D1*
X1010039D1*
Y473618D1*
X1360039Y573608D2*
Y617371D1*
X1010039D1*
Y573608D1*
X1278780Y311122D2*
X1178780D1*
Y429886D1*
X1278780D1*
Y311122D1*
X551194Y688987D2*
Y679159D1*
X769669Y379921D2*
X627969D1*
Y427425D1*
X769669Y379921D2*
Y427425D1*
X698819Y462534D2*
Y539306D1*
Y541284D2*
X708658Y521597D1*
X698819Y541284D2*
X688980Y521597D1*
X698819Y456631D2*
X708658Y478297D1*
X698819Y456631D2*
X688980Y478297D1*
X551194Y688987D2*
X557430D1*
X558365D2*
Y679159D1*
X846444Y427425D2*
X551194D1*
X846479Y688987D2*
X846444Y679159D1*
X839272Y688987D2*
X845509D1*
X839272D2*
Y679159D1*
X551194Y427425D2*
Y576765D1*
X846444D2*
Y427425D1*
Y576765D2*
X551194D1*
X1413373Y3669281D2*
Y3679109D1*
X1194898Y3978346D2*
X1336598D1*
Y3930843D1*
X1194898Y3978346D2*
Y3930843D1*
X1265748Y3895733D2*
Y3818961D1*
Y3816983D2*
X1255909Y3836671D1*
X1265748Y3816983D2*
X1275587Y3836671D1*
X1265748Y3901636D2*
X1255909Y3879971D1*
X1265748Y3901636D2*
X1275587Y3879971D1*
X1413373Y3669281D2*
X1407137D1*
X1406202D2*
Y3679109D1*
X1118123Y3930843D2*
X1413373D1*
X1118088Y3669281D2*
X1118123Y3679109D1*
X1125294Y3669281D2*
X1119058D1*
X1125294D2*
Y3679109D1*
X1413373Y3930843D2*
Y3781503D1*
X1118123D2*
Y3930843D1*
Y3781503D2*
X1413373D1*
D35*
X1109116Y2067065D3*
X1163182Y2061802D2*
D10*
Y1943694D1*
X1194672Y2061802D2*
Y1943694D1*
X1163182D2*
X1194672D1*
X1163182Y2061802D2*
X1194672D1*
D19*
X935024Y567816D3*
X1223971Y1558343D2*
D76*
X1221594Y1563096D1*
X1216786Y1567904D1*
X1212032Y1570281D1*
X1202471D1*
X1197662Y1567904D1*
X1192909Y1563096D1*
X1190477Y1558343D1*
X1188101Y1551158D1*
Y1539164D1*
X1190477Y1532034D1*
X1192909Y1527226D1*
X1197662Y1522473D1*
X1202471Y1520041D1*
X1212032D1*
X1216786Y1522473D1*
X1221594Y1527226D1*
X1223971Y1532034D1*
X1239410Y1560664D2*
X1244218Y1563096D1*
X1251403Y1570226D1*
Y1520041D1*
X555513Y1876407D2*
X553137Y1881160D1*
X548328Y1885969D1*
X543575Y1888345D1*
X534013D1*
X529205Y1885969D1*
X524452Y1881160D1*
X522020Y1876407D1*
X519643Y1869222D1*
Y1857228D1*
X522020Y1850099D1*
X524452Y1845290D1*
X529205Y1840537D1*
X534013Y1838105D1*
X543575D1*
X548328Y1840537D1*
X553137Y1845290D1*
X555513Y1850099D1*
X573384Y1876352D2*
Y1878728D1*
X575761Y1883537D1*
X578138Y1885913D1*
X582946Y1888290D1*
X592508D1*
X597261Y1885913D1*
X599637Y1883537D1*
X602069Y1878728D1*
Y1873975D1*
X599637Y1869167D1*
X594884Y1862037D1*
X570953Y1838105D1*
X604446D1*
X587654Y1538871D2*
X585277Y1543625D1*
X580469Y1548433D1*
X575715Y1550810D1*
X566154D1*
X561345Y1548433D1*
X556592Y1543625D1*
X554160Y1538871D1*
X551784Y1531686D1*
Y1519693D1*
X554160Y1512563D1*
X556592Y1507755D1*
X561345Y1503002D1*
X566154Y1500570D1*
X575715D1*
X580469Y1503002D1*
X585277Y1507755D1*
X587654Y1512563D1*
X607901Y1550754D2*
X634154D1*
X619840Y1531631D1*
X627025D1*
X631778Y1529255D1*
X634154Y1526878D1*
X636586Y1519693D1*
Y1514940D1*
X634154Y1507755D1*
X629401Y1502946D1*
X622216Y1500570D1*
X615031D1*
X607901Y1502946D1*
X605525Y1505378D1*
X603093Y1510131D1*
X785846Y1283439D2*
X781093Y1281062D1*
X776284Y1276254D1*
X773908Y1271500D1*
Y1261939D1*
X776284Y1257130D1*
X781093Y1252377D1*
X785846Y1249945D1*
X793031Y1247569D1*
X805024D1*
X812154Y1249945D1*
X816962Y1252377D1*
X821716Y1257130D1*
X824148Y1261939D1*
Y1271500D1*
X821716Y1276253D1*
X816963Y1281062D1*
X812154Y1283439D1*
X773963Y1327563D2*
Y1303686D1*
X795463Y1301310D1*
X793086Y1303686D1*
X790654Y1310871D1*
Y1318001D1*
X793086Y1325186D1*
X797839Y1329995D1*
X805024Y1332371D1*
X809777D1*
X816963Y1329994D1*
X821771Y1325186D1*
X824148Y1318001D1*
Y1310871D1*
X821771Y1303686D1*
X819339Y1301310D1*
X814586Y1298878D1*
X1323398Y2490774D2*
X1318645Y2488397D1*
X1313837Y2483589D1*
X1311460Y2478836D1*
Y2469274D1*
X1313837Y2464466D1*
X1318645Y2459712D1*
X1323398Y2457281D1*
X1330583Y2454904D1*
X1342577D1*
X1349707Y2457281D1*
X1354515Y2459712D1*
X1359268Y2464466D1*
X1361700Y2469274D1*
Y2478836D1*
X1359268Y2483589D1*
X1354515Y2488397D1*
X1349707Y2490774D1*
X1318645Y2534898D2*
X1313892Y2532521D1*
X1311515Y2525336D1*
Y2520583D1*
X1313892Y2513398D1*
X1321077Y2508590D1*
X1333015Y2506213D1*
X1344953D1*
X1354515Y2508590D1*
X1359323Y2513398D1*
X1361700Y2520583D1*
Y2522960D1*
X1359323Y2530090D1*
X1354515Y2534898D1*
X1347330Y2537275D1*
X1344953D1*
X1337768Y2534898D1*
X1333015Y2530090D1*
X1330639Y2522960D1*
Y2520583D1*
X1333015Y2513398D1*
X1337768Y2508590D1*
X1344953Y2506213D1*
X976951Y2396260D2*
X972198Y2393884D1*
X967390Y2389075D1*
X965013Y2384322D1*
Y2374760D1*
X967390Y2369952D1*
X972198Y2365199D1*
X976951Y2362767D1*
X984136Y2360390D1*
X996130D1*
X1003260Y2362767D1*
X1008068Y2365199D1*
X1012821Y2369952D1*
X1015253Y2374760D1*
Y2384322D1*
X1012821Y2389075D1*
X1008068Y2393883D1*
X1003260Y2396260D1*
X1015253Y2421261D2*
X965068Y2445193D1*
Y2411699D1*
X648718Y3577559D2*
X643965Y3575183D1*
X639157Y3570374D1*
X636780Y3565621D1*
Y3556060D1*
X639157Y3551251D1*
X643965Y3546498D1*
X648718Y3544066D1*
X655903Y3541690D1*
X667897D1*
X675027Y3544066D1*
X679835Y3546498D1*
X684588Y3551251D1*
X687020Y3556060D1*
Y3565621D1*
X684588Y3570374D1*
X679835Y3575183D1*
X675027Y3577559D1*
X636836Y3604937D2*
X639212Y3597807D1*
X643965Y3595375D1*
X648774D1*
X653527Y3597807D1*
X655959Y3602560D1*
X658335Y3612122D1*
X660712Y3619307D1*
X665520Y3624060D1*
X670274Y3626437D1*
X677459D1*
X682212Y3624060D1*
X684644Y3621683D1*
X687020Y3614498D1*
Y3604937D1*
X684644Y3597807D1*
X682212Y3595375D1*
X677459Y3592999D1*
X670274D1*
X665520Y3595375D1*
X660712Y3600184D1*
X658335Y3607313D1*
X655959Y3616875D1*
X653527Y3621683D1*
X648774Y3624060D1*
X643965D1*
X639212Y3621683D1*
X636836Y3614498D1*
Y3604937D1*
X690057Y3453707D2*
X685304Y3451330D1*
X680495Y3446522D1*
X678119Y3441769D1*
Y3432207D1*
X680495Y3427399D1*
X685304Y3422645D1*
X690057Y3420214D1*
X697242Y3417837D1*
X709236D1*
X716365Y3420214D1*
X721174Y3422645D1*
X725927Y3427399D1*
X728359Y3432207D1*
Y3441769D1*
X725927Y3446522D1*
X721174Y3451330D1*
X716365Y3453707D1*
X694866Y3500263D2*
X702051Y3497831D1*
X706859Y3493078D1*
X709236Y3485893D1*
Y3483516D1*
X706859Y3476331D1*
X702051Y3471578D1*
X694866Y3469146D1*
X692489D1*
X685304Y3471578D1*
X680551Y3476331D1*
X678174Y3483516D1*
Y3485893D1*
X680551Y3493078D1*
X685304Y3497831D1*
X694866Y3500263D1*
X706859D1*
X718797Y3497831D1*
X725982Y3493078D1*
X728359Y3485893D1*
Y3481140D1*
X725982Y3473955D1*
X721174Y3471578D1*
X1291262Y1910656D2*
X1288885Y1915409D1*
X1284077Y1920217D1*
X1279324Y1922594D1*
X1269762D1*
X1264954Y1920217D1*
X1260201Y1915409D1*
X1257769Y1910656D1*
X1255392Y1903471D1*
Y1891477D1*
X1257769Y1884347D1*
X1260201Y1879539D1*
X1264954Y1874786D1*
X1269762Y1872354D1*
X1279324D1*
X1284077Y1874786D1*
X1288885Y1879539D1*
X1291262Y1884347D1*
X1306701Y1912977D2*
X1311510Y1915409D1*
X1318695Y1922539D1*
Y1872354D1*
X1334134Y1912977D2*
X1338943Y1915409D1*
X1346128Y1922539D1*
Y1872354D1*
X1322384Y3628608D2*
X1372624D1*
Y3645355D1*
X1370192Y3652540D1*
X1365439Y3657348D1*
X1360630Y3659725D1*
X1353501Y3662101D1*
X1341507D1*
X1334322Y3659725D1*
X1329569Y3657348D1*
X1324761Y3652540D1*
X1322384Y3645355D1*
Y3628608D1*
X1332001Y3677540D2*
X1329569Y3682349D1*
X1322439Y3689534D1*
X1372624D1*
X1181288Y3543483D2*
Y3493243D1*
X1198035D1*
X1205220Y3495675D1*
X1210029Y3500428D1*
X1212405Y3505236D1*
X1214782Y3512366D1*
Y3524360D1*
X1212405Y3531545D1*
X1210029Y3536298D1*
X1205220Y3541106D1*
X1198035Y3543483D1*
X1181288D1*
X1232653Y3531489D2*
Y3533866D1*
X1235029Y3538674D1*
X1237406Y3541051D1*
X1242214Y3543428D1*
X1251776D1*
X1256529Y3541051D1*
X1258906Y3538674D1*
X1261338Y3533866D1*
Y3529113D1*
X1258906Y3524304D1*
X1254153Y3517175D1*
X1230221Y3493243D1*
X1263714D1*
X763740Y3734453D2*
Y3696207D1*
X761364Y3689022D1*
X758932Y3686645D1*
X754179Y3684213D1*
X749370D1*
X744617Y3686645D1*
X742240Y3689022D1*
X739809Y3696207D1*
Y3700960D1*
X779180Y3724836D2*
X783988Y3727268D1*
X791173Y3734398D1*
Y3684213D1*
X660712Y3269010D2*
Y3290509D1*
X658280Y3297694D1*
X655904Y3300126D1*
X651150Y3302503D1*
X646342D1*
X641589Y3300126D1*
X639157Y3297694D1*
X636780Y3290509D1*
Y3269010D1*
X687020D1*
X660712Y3285756D2*
X687020Y3302503D1*
X653527Y3349059D2*
X660712Y3346627D1*
X665520Y3341874D1*
X667897Y3334689D1*
Y3332312D1*
X665520Y3325127D1*
X660712Y3320374D1*
X653527Y3317942D1*
X651150D1*
X643965Y3320374D1*
X639212Y3325127D1*
X636836Y3332312D1*
Y3334689D1*
X639212Y3341874D1*
X643965Y3346627D1*
X653527Y3349059D1*
X665520D1*
X677459Y3346627D1*
X684644Y3341874D1*
X687020Y3334689D1*
Y3329936D1*
X684644Y3322751D1*
X679835Y3320374D1*
X1346175Y2970972D2*
Y2992471D1*
X1343743Y2999656D1*
X1341367Y3002088D1*
X1336614Y3004465D1*
X1331805D1*
X1327052Y3002088D1*
X1324620Y2999657D1*
X1322244Y2992471D1*
X1322243Y2970972D1*
X1372483D1*
X1346175Y2987718D2*
X1372484Y3004465D1*
X1331860Y3019904D2*
X1329429Y3024713D1*
X1322299Y3031898D1*
X1372484D1*
X1331860Y3047337D2*
X1329429Y3052145D1*
X1322299Y3059330D1*
X1372484D1*
X1164470Y2869049D2*
X1185969D1*
X1193155Y2871480D1*
X1195586Y2873857D1*
X1197963Y2878610D1*
Y2883419D1*
X1195586Y2888172D1*
X1193155Y2890604D1*
X1185969Y2892980D1*
X1164470D1*
Y2842740D1*
X1181216Y2869049D2*
X1197963Y2842740D1*
X1213402Y2883363D2*
X1218211Y2885795D1*
X1225396Y2892925D1*
Y2842740D1*
X1243267Y2880987D2*
Y2883363D1*
X1245643Y2888172D1*
X1248020Y2890548D1*
X1252828Y2892925D1*
X1262390D1*
X1267143Y2890548D1*
X1269520Y2888172D1*
X1271952Y2883363D1*
Y2878610D1*
X1269520Y2873802D1*
X1264767Y2866672D1*
X1240835Y2842740D1*
X1274328D1*
X735925Y1910214D2*
Y1931714D1*
X733493Y1938899D1*
X731116Y1941331D1*
X726363Y1943707D1*
X721554D1*
X716801Y1941331D1*
X714369Y1938899D1*
X711993Y1931714D1*
Y1910214D1*
X762233D1*
X735925Y1926961D2*
X762233Y1943707D1*
X721610Y1959146D2*
X719178Y1963955D1*
X712048Y1971140D1*
X762233D1*
X712048Y1991388D2*
Y2017641D1*
X731171Y2003326D1*
Y2010511D1*
X733548Y2015264D1*
X735925Y2017641D1*
X743110Y2020072D1*
X747863D1*
X755048Y2017641D1*
X759856Y2012887D1*
X762233Y2005702D1*
Y1998517D1*
X759856Y1991387D1*
X757424Y1989011D1*
X752671Y1986579D1*
X444546Y2009036D2*
Y2030536D1*
X442114Y2037721D1*
X439738Y2040153D1*
X434984Y2042529D1*
X430176D1*
X425423Y2040153D1*
X422991Y2037721D1*
X420614Y2030536D1*
Y2009036D1*
X470854D1*
X444546Y2025783D2*
X470854Y2042529D1*
X430231Y2057969D2*
X427799Y2062777D1*
X420670Y2069962D1*
X470854D1*
Y2109333D2*
X420670D1*
X454108Y2085401D1*
Y2121271D1*
X1188070Y683409D2*
X1183316Y688218D1*
X1176131Y690594D1*
X1166570D1*
X1159385Y688218D1*
X1154576Y683409D1*
Y678656D1*
X1157008Y673848D1*
X1159385Y671471D1*
X1164138Y669095D1*
X1178508Y664286D1*
X1183316Y661910D1*
X1185693Y659478D1*
X1188070Y654725D1*
Y647540D1*
X1183316Y642786D1*
X1176131Y640354D1*
X1166570D1*
X1159385Y642786D1*
X1154576Y647540D1*
X1203509Y680978D2*
X1208317Y683409D1*
X1215502Y690539D1*
Y640354D1*
X691099Y755025D2*
X686346Y759833D1*
X679161Y762210D1*
X669599D1*
X662414Y759833D1*
X657606Y755025D1*
Y750272D1*
X660038Y745463D1*
X662414Y743087D1*
X667168Y740710D1*
X681538Y735902D1*
X686346Y733525D1*
X688723Y731093D1*
X691099Y726340D1*
Y719155D1*
X686346Y714402D1*
X679161Y711970D1*
X669599D1*
X662414Y714402D1*
X657606Y719155D1*
X708970Y750216D2*
Y752593D1*
X711347Y757402D1*
X713724Y759778D1*
X718532Y762155D1*
X728094D1*
X732847Y759778D1*
X735223Y757402D1*
X737655Y752593D1*
Y747840D1*
X735223Y743031D1*
X730470Y735902D1*
X706539Y711970D1*
X740032D1*
X1254091Y3756983D2*
X1249338Y3761791D1*
X1242153Y3764168D1*
X1232592D1*
X1225407Y3761791D1*
X1220598Y3756983D1*
Y3752230D1*
X1223030Y3747421D1*
X1225407Y3745045D1*
X1230160Y3742668D1*
X1244530Y3737860D1*
X1249338Y3735483D1*
X1251715Y3733051D1*
X1254091Y3728298D1*
Y3721113D1*
X1249338Y3716360D1*
X1242153Y3713928D1*
X1232592D1*
X1225407Y3716360D1*
X1220598Y3721113D1*
X1274339Y3764113D2*
X1300592D1*
X1286277Y3744989D1*
X1293462D1*
X1298216Y3742613D1*
X1300592Y3740236D1*
X1303024Y3733051D1*
Y3728298D1*
X1300592Y3721113D1*
X1295839Y3716305D1*
X1288654Y3713928D1*
X1281469D1*
X1274339Y3716305D1*
X1271963Y3718736D1*
X1269531Y3723490D1*
X1136343Y2147988D2*
Y2112118D1*
X1138720Y2104933D1*
X1143529Y2100180D1*
X1150714Y2097748D1*
X1155467D1*
X1162652Y2100180D1*
X1167460Y2104933D1*
X1169837Y2112118D1*
Y2147988D1*
X1190085Y2147933D2*
X1216338D1*
X1202023Y2128810D1*
X1209208D1*
X1213961Y2126433D1*
X1216338Y2124056D1*
X1218769Y2116871D1*
Y2112118D1*
X1216338Y2104933D1*
X1211584Y2100125D1*
X1204399Y2097748D1*
X1197214D1*
X1190085Y2100125D1*
X1187708Y2102557D1*
X1185276Y2107310D1*
M02*
